Coordinates
version=1
nRows=23
nColumns=32
inDegrees=no

Units are S.I. units (second, meters, Newtons, ...)
If the header above contains a line with 'inDegrees', this indicates whether rotational values are in degrees (yes) or radians (no).

endheader
time	pelvis_tilt	pelvis_list	pelvis_rotation	pelvis_tx	pelvis_ty	pelvis_tz	hip_flexion_r	hip_adduction_r	hip_rotation_r	knee_angle_r	ankle_angle_r	subtalar_angle_r	mtp_angle_r	hip_flexion_l	hip_adduction_l	hip_rotation_l	knee_angle_l	ankle_angle_l	subtalar_angle_l	mtp_angle_l	lumbar_extension	lumbar_bending	lumbar_rotation	arm_flex_r	arm_add_r	arm_rot_r	elbow_flex_r	arm_flex_l	arm_add_l	arm_rot_l	elbow_flex_l
2.385	-0.749023	-0.0489274	0.113683	0.498094	0.737627	1.23772	0.526527	-0.055542	-0.0327809	1.48921	-0.281408	-0.202992	-0.00026274	0.452533	-0.20273	0.0117475	1.42129	-0.125371	-0.00952085	0.000533249	0.645581	-0.0686096	-0.00842998	-0.747698	-1.24008	-1.5875	1.99685	-0.421534	-1.53055	-1.58476	2.12633
2.39	-0.749255	-0.0489675	0.113964	0.498325	0.737571	1.23766	0.526225	-0.0556455	-0.0328502	1.48858	-0.282558	-0.205255	-0.000261716	0.452394	-0.202636	0.0117335	1.42107	-0.125318	-0.00995151	0.000533727	0.646566	-0.0687831	-0.00846781	-0.748021	-1.24018	-1.58751	1.99682	-0.424527	-1.53101	-1.58463	2.12619
2.395	-0.749391	-0.0489525	0.114285	0.498648	0.737515	1.2376	0.525712	-0.0557625	-0.0328895	1.48771	-0.284982	-0.209791	-0.000260692	0.452097	-0.202532	0.0116708	1.4209	-0.125066	-0.0105213	0.000534206	0.647907	-0.0691066	-0.00861513	-0.748181	-1.24048	-1.58752	1.9968	-0.428086	-1.53161	-1.58433	2.12586
2.4	-0.749472	-0.0488957	0.114639	0.499011	0.73746	1.23754	0.52509	-0.0559192	-0.0329226	1.48672	-0.288014	-0.215393	-0.000259669	0.451718	-0.202416	0.011597	1.42075	-0.124701	-0.0111288	0.000534685	0.649385	-0.0695226	-0.008827	-0.74826	-1.24087	-1.58753	1.99676	-0.431618	-1.53229	-1.58385	2.12538
2.405	-0.749543	-0.0488119	0.115016	0.499361	0.737405	1.23747	0.524467	-0.0561381	-0.0329705	1.48571	-0.29098	-0.220836	-0.000258646	0.451339	-0.202288	0.0115522	1.42064	-0.124323	-0.0116774	0.000535163	0.650774	-0.0699701	-0.009055	-0.748338	-1.24125	-1.58754	1.99667	-0.434529	-1.53297	-1.58324	2.12478
2.41	-0.749642	-0.0487167	0.115403	0.499653	0.737351	1.23741	0.523934	-0.0564301	-0.0330458	1.48478	-0.293329	-0.225123	-0.000257624	0.451033	-0.202145	0.0115682	1.42054	-0.124019	-0.0120902	0.000535642	0.651889	-0.0703931	-0.00925303	-0.748468	-1.24152	-1.58755	1.99653	-0.436417	-1.5336	-1.58256	2.12412
2.415	-0.749793	-0.0486263	0.115789	0.499859	0.737297	1.23734	0.523559	-0.0567915	-0.0331522	1.48402	-0.294695	-0.2276	-0.000256603	0.450853	-0.201991	0.0116567	1.42045	-0.123854	-0.0123184	0.000536121	0.652613	-0.0707451	-0.00937844	-0.748653	-1.2416	-1.58756	1.99633	-0.437228	-1.53414	-1.58195	2.12343
2.42	-0.750002	-0.0485565	0.116165	0.499965	0.737246	1.23726	0.523377	-0.0572059	-0.0332858	1.48346	-0.294914	-0.227982	-0.000255583	0.450831	-0.201837	0.0118051	1.42039	-0.12386	-0.012343	0.000536599	0.652895	-0.0709906	-0.00939479	-0.748843	-1.24142	-1.58757	1.99608	-0.437242	-1.53459	-1.58156	2.12278
2.425	-0.750258	-0.0485196	0.116519	0.499973	0.737198	1.23717	0.523394	-0.0576477	-0.0334361	1.48315	-0.294028	-0.226352	-0.000254564	0.450972	-0.201702	0.0119803	1.42033	-0.12404	-0.0121789	0.000537078	0.652736	-0.0711082	-0.00927945	-0.748969	-1.24097	-1.58758	1.99581	-0.436914	-1.53492	-1.58155	2.1222
2.43	-0.750538	-0.0485212	0.116841	0.499898	0.737155	1.23708	0.523582	-0.0580857	-0.0335877	1.48308	-0.292273	-0.223136	-0.000253545	0.451254	-0.201605	0.012138	1.4203	-0.124363	-0.011877	0.000537557	0.65219	-0.071095	-0.00903269	-0.748967	-1.24022	-1.58759	1.99555	-0.436667	-1.53515	-1.582	2.12175
2.435	-0.750825	-0.0485596	0.117119	0.499769	0.737116	1.23699	0.523884	-0.0584871	-0.0337207	1.48318	-0.290044	-0.219049	-0.000252527	0.451624	-0.201563	0.0122358	1.42026	-0.124777	-0.0115186	0.000538035	0.651395	-0.0709715	-0.00868302	-0.748819	-1.23927	-1.5876	1.99532	-0.436724	-1.53529	-1.58284	2.12142
2.44	-0.751097	-0.0486286	0.117338	0.499629	0.737079	1.2369	0.524218	-0.0588182	-0.0338152	1.48337	-0.287851	-0.215011	-0.00025151	0.452011	-0.201577	0.0122457	1.42022	-0.125209	-0.0111989	0.000538514	0.650538	-0.0707725	-0.00828027	-0.748502	-1.23823	-1.58761	1.99514	-0.437269	-1.53536	-1.58388	2.1212
2.445	-0.751325	-0.0487194	0.117487	0.499523	0.737044	1.23682	0.524489	-0.0590456	-0.033854	1.48355	-0.286229	-0.212002	-0.000250493	0.452334	-0.201639	0.0121597	1.42019	-0.125581	-0.0110064	0.000538993	0.649822	-0.07054	-0.00788801	-0.747976	-1.23725	-1.58762	1.995	-0.438499	-1.53539	-1.58496	2.1211
2.45	-0.751477	-0.048822	0.117557	0.499493	0.737009	1.23675	0.524613	-0.0591423	-0.0338254	1.48363	-0.28562	-0.210837	-0.000249477	0.452525	-0.201732	0.0119892	1.42015	-0.125822	-0.0110033	0.000539472	0.649415	-0.0703141	-0.00757218	-0.747201	-1.23645	-1.58762	1.99491	-0.440556	-1.53539	-1.58596	2.12109
2.455	-0.751537	-0.0489284	0.117541	0.499557	0.736973	1.2367	0.52455	-0.0590961	-0.0337265	1.48356	-0.286228	-0.211902	-0.000248462	0.452545	-0.20184	0.01176	1.42013	-0.125887	-0.0112091	0.000539952	0.649395	-0.070121	-0.00738127	-0.746207	-1.23589	-1.58763	1.99487	-0.44335	-1.53533	-1.58678	2.12117
2.46	-0.751537	-0.0490371	0.117444	0.499691	0.736936	1.23667	0.524348	-0.0589259	-0.0335702	1.48339	-0.287781	-0.214708	-0.000247447	0.452433	-0.201949	0.0115135	1.42012	-0.12579	-0.0115693	0.000540431	0.649668	-0.0699536	-0.00731585	-0.745183	-1.23556	-1.58764	1.99489	-0.446293	-1.53518	-1.5874	2.12133
2.465	-0.751521	-0.0491501	0.117275	0.499856	0.736896	1.23665	0.524094	-0.0586641	-0.0333773	1.48319	-0.289804	-0.218392	-0.000246434	0.452255	-0.202052	0.0112887	1.4201	-0.125576	-0.0119972	0.000540911	0.650072	-0.0697919	-0.00735044	-0.744353	-1.23538	-1.58765	1.99497	-0.448711	-1.53492	-1.58781	2.12155
2.47	-0.751532	-0.0492704	0.11705	0.500013	0.736854	1.23664	0.523871	-0.0583442	-0.0331678	1.48301	-0.291798	-0.222041	-0.00024542	0.45208	-0.202145	0.0111138	1.42006	-0.125304	-0.012403	0.000541391	0.650455	-0.0696166	-0.00744858	-0.743887	-1.23527	-1.58766	1.99509	-0.450097	-1.53454	-1.58803	2.12182
2.475	-0.751601	-0.0494006	0.116787	0.500134	0.736808	1.23664	0.523744	-0.0579948	-0.0329577	1.48293	-0.293337	-0.22488	-0.000244408	0.451962	-0.202229	0.0110039	1.42	-0.125027	-0.0127077	0.000541871	0.650714	-0.069417	-0.00757235	-0.743864	-1.23515	-1.58767	1.99522	-0.45022	-1.53407	-1.58807	2.12212
2.48	-0.751746	-0.0495412	0.116507	0.500204	0.73676	1.23665	0.523749	-0.0576394	-0.032759	1.48297	-0.294126	-0.226372	-0.000243396	0.451935	-0.202307	0.0109645	1.41992	-0.124794	-0.0128568	0.000542351	0.650803	-0.0691943	-0.00769041	-0.744276	-1.235	-1.58768	1.99532	-0.449083	-1.53355	-1.58796	2.12243
2.485	-0.751971	-0.0496902	0.11623	0.500223	0.736707	1.23667	0.523897	-0.057298	-0.03258	1.48314	-0.294029	-0.226269	-0.000242386	0.45201	-0.202379	0.0109937	1.41981	-0.12464	-0.0128257	0.000542831	0.650722	-0.0689606	-0.00778276	-0.745032	-1.23481	-1.58769	1.99535	-0.446863	-1.53304	-1.58772	2.12274
2.49	-0.752269	-0.0498437	0.115974	0.500197	0.736651	1.23668	0.524174	-0.0569864	-0.0324264	1.48341	-0.293066	-0.224616	-0.000241376	0.452183	-0.202451	0.011081	1.41968	-0.124589	-0.012618	0.000543311	0.650504	-0.0687346	-0.00784146	-0.745976	-1.23458	-1.5877	1.99526	-0.443847	-1.5326	-1.58737	2.12301
2.495	-0.752621	-0.0499974	0.115758	0.500138	0.736591	1.23669	0.524547	-0.0567155	-0.0322999	1.48376	-0.291411	-0.221736	-0.000240366	0.452431	-0.202527	0.0112068	1.41954	-0.124647	-0.0122627	0.000543791	0.650197	-0.0685357	-0.0078687	-0.746913	-1.23434	-1.58771	1.99503	-0.440397	-1.53228	-1.58694	2.12322
